<svg width="640" height="460" viewBox="0 0 640 460" fill="none" xmlns="http://www.w3.org/2000/svg">
  <rect width="640" height="460" rx="40" fill="#F9FBFF"/>
  <circle cx="150" cy="130" r="90" fill="#DCEEFF"/>
  <path d="M120 90L180 90L180 110L120 110L120 90Z" fill="#2277F4"/>
  <path d="M140 70L160 70L160 130L140 130L140 70Z" fill="#2277F4"/>
  <path d="M110 150L190 150L190 170L110 170L110 150Z" fill="#A3CBFF"/>
  <rect x="340" y="90" width="220" height="220" rx="28" fill="#fff" stroke="#D9E9FF" stroke-width="14"/>
  <path d="M380 140C380 138.343 381.343 137 383 137H423C424.657 137 426 138.343 426 140V192C426 193.657 424.657 195 423 195H383C381.343 195 380 193.657 380 192V140Z" fill="#2277F4"/>
  <path d="M431 140H471C472.657 140 474 141.343 474 143V185C474 186.657 472.657 188 471 188H431C429.343 188 428 186.657 428 185V143C428 141.343 429.343 140 431 140Z" fill="#FFB100"/>
  <path d="M400 240C400 234.477 404.477 230 410 230H450C455.523 230 460 234.477 460 240V290H400V240Z" fill="#EAF4FF"/>
  <circle cx="520" cy="320" r="65" fill="#DFF1E1"/>
  <path d="M505 312L525 312L525 332L505 332L505 312Z" fill="#2277F4"/>
  <path d="M515 302L535 302L535 342L515 342L515 302Z" fill="#2277F4"/>
  <path d="M365 60L380 80L360 90L345 70L365 60Z" fill="#FFF3CC"/>
  <path d="M590 70L605 90L585 100L570 80L590 70Z" fill="#FFF3CC"/>
</svg>
